<?xml version="1.0" encoding="UTF-8"?>
<svg viewBox="0 0 399.72318 83.752571" xmlns="http://www.w3.org/2000/svg">
 <g transform="matrix(4.4799 0 0 2.9866 -353.24 -867.53)" stroke="#000">
  <path d="m79.463 291.39h88.002v26.206h-88.002z" fill="#fff" stroke-width="1.5"/>
  <g transform="matrix(1 0 0 .76435 .78697 68.514)">
   <path d="m81.923 291.14h1.8688v19.539h-1.8688z" stroke-width=".26172"/>
   <path d="m92.505 291.1h1.9424v9.7123h-1.9424z" stroke-width=".18812"/>
   <path d="m87.196 291.1h1.9424v9.7123h-1.9424z" stroke-width=".18812"/>
   <path d="m97.814 291.1h1.9424v9.7123h-1.9424z" stroke-width=".18812"/>
   <path d="m103.12 291.1h1.9424v9.7123h-1.9424z" stroke-width=".18812"/>
   <path d="m108.47 291.14h1.8688v19.539h-1.8688z" stroke-width=".26172"/>
   <path d="m119.05 291.1h1.9424v9.7123h-1.9424z" stroke-width=".18812"/>
   <path d="m113.74 291.1h1.9424v9.7123h-1.9424z" stroke-width=".18812"/>
   <path d="m124.36 291.1h1.9424v9.7123h-1.9424z" stroke-width=".18812"/>
   <path d="m129.67 291.1h1.9424v9.7123h-1.9424z" stroke-width=".18812"/>
   <path d="m135.01 291.14h1.8688v19.539h-1.8688z" stroke-width=".26172"/>
   <path d="m145.6 291.1h1.9424v9.7123h-1.9424z" stroke-width=".18812"/>
   <path d="m140.29 291.1h1.9424v9.7123h-1.9424z" stroke-width=".18812"/>
   <path d="m150.91 291.1h1.9424v9.7123h-1.9424z" stroke-width=".18812"/>
   <path d="m156.21 291.1h1.9424v9.7123h-1.9424z" stroke-width=".18812"/>
   <path d="m161.56 291.14h1.8688v19.539h-1.8688z" stroke-width=".26172"/>
  </g>
 </g>
</svg>
